REM DIRINDEX 1\2\4,1\2\5,1\2\6,1\3\7,1\3\8,1\3\9,1\3\10
REM DIRNAME cjc057,folder01,folder02,folder03,folder04,folder05,folder06,folder07,folder08,folder09
TITLE ""
FILE "a_134.mp3" MP3
  TRACK 01 AUDIO
    TITLE "0:"
    INDEX 01 00:00:00
  TRACK 02 AUDIO
    TITLE "4:cjc057_02846"
    INDEX 01 00:00:13
  TRACK 03 AUDIO
    TITLE "0:"
    INDEX 01 00:01:42
  TRACK 04 AUDIO
    TITLE "5:cjc057_02847"
    INDEX 01 00:01:69
  TRACK 05 AUDIO
    TITLE "0:"
    INDEX 01 00:03:21
  TRACK 06 AUDIO
    TITLE "4:cjc057_02848"
    INDEX 01 00:04:23
  TRACK 07 AUDIO
    TITLE "0:"
    INDEX 01 00:05:69
  TRACK 08 AUDIO
    TITLE "5:cjc057_02849"
    INDEX 01 00:06:24
  TRACK 09 AUDIO
    TITLE "0:"
    INDEX 01 00:07:47
  TRACK 10 AUDIO
    TITLE "4:cjc057_02850"
    INDEX 01 00:08:54
  TRACK 11 AUDIO
    TITLE "0:"
    INDEX 01 00:10:04
  TRACK 12 AUDIO
    TITLE "5:cjc057_02851"
    INDEX 01 00:10:35
  TRACK 13 AUDIO
    TITLE "0:"
    INDEX 01 00:12:60
  TRACK 14 AUDIO
    TITLE "4:cjc057_02852"
    INDEX 01 00:13:65
  TRACK 15 AUDIO
    TITLE "0:"
    INDEX 01 00:15:23
  TRACK 16 AUDIO
    TITLE "5:cjc057_02853"
    INDEX 01 00:15:50
  TRACK 17 AUDIO
    TITLE "0:"
    INDEX 01 00:17:53
  TRACK 18 AUDIO
    TITLE "4:cjc057_02854"
    INDEX 01 00:18:60
  TRACK 19 AUDIO
    TITLE "0:"
    INDEX 01 00:20:51
  TRACK 20 AUDIO
    TITLE "5:cjc057_02855"
    INDEX 01 00:21:06
  TRACK 21 AUDIO
    TITLE "0:"
    INDEX 01 00:24:65
  TRACK 22 AUDIO
    TITLE "4:cjc057_02856"
    INDEX 01 00:25:72
  TRACK 23 AUDIO
    TITLE "0:"
    INDEX 01 00:27:28
  TRACK 24 AUDIO
    TITLE "5:cjc057_02857"
    INDEX 01 00:27:61
  TRACK 25 AUDIO
    TITLE "0:"
    INDEX 01 00:28:64
  TRACK 26 AUDIO
    TITLE "4:cjc057_02858"
    INDEX 01 00:29:70
  TRACK 27 AUDIO
    TITLE "0:"
    INDEX 01 00:31:35
  TRACK 28 AUDIO
    TITLE "5:cjc057_02859"
    INDEX 01 00:31:65
  TRACK 29 AUDIO
    TITLE "0:"
    INDEX 01 00:34:26
  TRACK 30 AUDIO
    TITLE "4:cjc057_02860"
    INDEX 01 00:35:29
  TRACK 31 AUDIO
    TITLE "0:"
    INDEX 01 00:36:60
  TRACK 32 AUDIO
    TITLE "5:cjc057_02861"
    INDEX 01 00:37:14
  TRACK 33 AUDIO
    TITLE "0:"
    INDEX 01 00:38:39
  TRACK 34 AUDIO
    TITLE "4:cjc057_02862"
    INDEX 01 00:39:43
  TRACK 35 AUDIO
    TITLE "0:"
    INDEX 01 00:40:62
  TRACK 36 AUDIO
    TITLE "5:cjc057_02863"
    INDEX 01 00:41:16
  TRACK 37 AUDIO
    TITLE "0:"
    INDEX 01 00:42:25
  TRACK 38 AUDIO
    TITLE "4:cjc057_02864"
    INDEX 01 00:43:29
  TRACK 39 AUDIO
    TITLE "0:"
    INDEX 01 00:44:60
  TRACK 40 AUDIO
    TITLE "5:cjc057_02865"
    INDEX 01 00:45:12
  TRACK 41 AUDIO
    TITLE "0:"
    INDEX 01 00:46:74
  TRACK 42 AUDIO
    TITLE "4:cjc057_02866"
    INDEX 01 00:48:02
  TRACK 43 AUDIO
    TITLE "0:"
    INDEX 01 00:49:47
  TRACK 44 AUDIO
    TITLE "5:cjc057_02867"
    INDEX 01 00:49:72
  TRACK 45 AUDIO
    TITLE "0:"
    INDEX 01 00:51:22
  TRACK 46 AUDIO
    TITLE "4:cjc057_02868"
    INDEX 01 00:52:24
  TRACK 47 AUDIO
    TITLE "0:"
    INDEX 01 00:53:53
  TRACK 48 AUDIO
    TITLE "5:cjc057_02869"
    INDEX 01 00:54:05
  TRACK 49 AUDIO
    TITLE "0:"
    INDEX 01 00:55:38
  TRACK 50 AUDIO
    TITLE "4:cjc057_02870"
    INDEX 01 00:56:39
  TRACK 51 AUDIO
    TITLE "0:"
    INDEX 01 00:58:13
  TRACK 52 AUDIO
    TITLE "5:cjc057_02871"
    INDEX 01 00:58:44
  TRACK 53 AUDIO
    TITLE "0:"
    INDEX 01 01:00:70
  TRACK 54 AUDIO
    TITLE "4:cjc057_02872"
    INDEX 01 01:02:01
  TRACK 55 AUDIO
    TITLE "0:"
    INDEX 01 01:03:41
  TRACK 56 AUDIO
    TITLE "5:cjc057_02873"
    INDEX 01 01:03:67
  TRACK 57 AUDIO
    TITLE "0:"
    INDEX 01 01:05:05
  TRACK 58 AUDIO
    TITLE "4:cjc057_02874"
    INDEX 01 01:06:08
  TRACK 59 AUDIO
    TITLE "0:"
    INDEX 01 01:07:41
  TRACK 60 AUDIO
    TITLE "5:cjc057_02875"
    INDEX 01 01:07:68
  TRACK 61 AUDIO
    TITLE "0:"
    INDEX 01 01:10:14
  TRACK 62 AUDIO
    TITLE "4:cjc057_02876"
    INDEX 01 01:11:19
  TRACK 63 AUDIO
    TITLE "0:"
    INDEX 01 01:12:58
  TRACK 64 AUDIO
    TITLE "5:cjc057_02877"
    INDEX 01 01:13:14
  TRACK 65 AUDIO
    TITLE "0:"
    INDEX 01 01:15:23
  TRACK 66 AUDIO
    TITLE "4:cjc057_02878"
    INDEX 01 01:16:26
  TRACK 67 AUDIO
    TITLE "0:"
    INDEX 01 01:17:71
  TRACK 68 AUDIO
    TITLE "5:cjc057_02879"
    INDEX 01 01:18:27
  TRACK 69 AUDIO
    TITLE "0:"
    INDEX 01 01:19:50
  TRACK 70 AUDIO
    TITLE "4:cjc057_02880"
    INDEX 01 01:20:55
  TRACK 71 AUDIO
    TITLE "0:"
    INDEX 01 01:22:17
  TRACK 72 AUDIO
    TITLE "5:cjc057_02881"
    INDEX 01 01:22:44
  TRACK 73 AUDIO
    TITLE "0:"
    INDEX 01 01:25:04
  TRACK 74 AUDIO
    TITLE "4:cjc057_02882"
    INDEX 01 01:26:09
  TRACK 75 AUDIO
    TITLE "0:"
    INDEX 01 01:27:57
  TRACK 76 AUDIO
    TITLE "5:cjc057_02883"
    INDEX 01 01:28:12
  TRACK 77 AUDIO
    TITLE "0:"
    INDEX 01 01:30:67
  TRACK 78 AUDIO
    TITLE "4:cjc057_02884"
    INDEX 01 01:31:69
  TRACK 79 AUDIO
    TITLE "0:"
    INDEX 01 01:33:36
  TRACK 80 AUDIO
    TITLE "5:cjc057_02885"
    INDEX 01 01:33:66
  TRACK 81 AUDIO
    TITLE "0:"
    INDEX 01 01:36:35
  TRACK 82 AUDIO
    TITLE "4:cjc057_02886"
    INDEX 01 01:37:40
  TRACK 83 AUDIO
    TITLE "0:"
    INDEX 01 01:39:15
  TRACK 84 AUDIO
    TITLE "5:cjc057_02887"
    INDEX 01 01:39:45
  TRACK 85 AUDIO
    TITLE "0:"
    INDEX 01 01:43:74
  TRACK 86 AUDIO
    TITLE "4:cjc057_02888"
    INDEX 01 01:45:02
  TRACK 87 AUDIO
    TITLE "0:"
    INDEX 01 01:46:47
  TRACK 88 AUDIO
    TITLE "5:cjc057_02889"
    INDEX 01 01:47:01
  TRACK 89 AUDIO
    TITLE "0:"
    INDEX 01 01:48:24
  TRACK 90 AUDIO
    TITLE "4:cjc057_02890"
    INDEX 01 01:49:30
  TRACK 91 AUDIO
    TITLE "0:"
    INDEX 01 01:51:01
  TRACK 92 AUDIO
    TITLE "5:cjc057_02891"
    INDEX 01 01:51:30
  TRACK 93 AUDIO
    TITLE "0:"
    INDEX 01 01:54:03
  TRACK 94 AUDIO
    TITLE "4:cjc057_02892"
    INDEX 01 01:55:09
  TRACK 95 AUDIO
    TITLE "0:"
    INDEX 01 01:56:47
  TRACK 96 AUDIO
    TITLE "5:cjc057_02893"
    INDEX 01 01:57:02
  TRACK 97 AUDIO
    TITLE "0:"
    INDEX 01 01:58:19
  TRACK 98 AUDIO
    TITLE "4:cjc057_02894"
    INDEX 01 01:59:26
  TRACK 99 AUDIO
    TITLE "0:"
    INDEX 01 02:00:59
  TRACK 100 AUDIO
    TITLE "5:cjc057_02895"
    INDEX 01 02:01:11
  TRACK 101 AUDIO
    TITLE "0:"
    INDEX 01 02:02:22
  TRACK 102 AUDIO
    TITLE "4:cjc057_02896"
    INDEX 01 02:03:28
  TRACK 103 AUDIO
    TITLE "0:"
    INDEX 01 02:04:74
  TRACK 104 AUDIO
    TITLE "5:cjc057_02897"
    INDEX 01 02:05:29
  TRACK 105 AUDIO
    TITLE "0:"
    INDEX 01 02:06:38
  TRACK 106 AUDIO
    TITLE "4:cjc057_02898"
    INDEX 01 02:07:43
  TRACK 107 AUDIO
    TITLE "0:"
    INDEX 01 02:08:52
  TRACK 108 AUDIO
    TITLE "5:cjc057_02899"
    INDEX 01 02:09:05
  TRACK 109 AUDIO
    TITLE "0:"
    INDEX 01 02:11:35
  TRACK 110 AUDIO
    TITLE "4:cjc057_02900"
    INDEX 01 02:12:38
  TRACK 111 AUDIO
    TITLE "0:"
    INDEX 01 02:13:44
  TRACK 112 AUDIO
    TITLE "5:cjc057_02901"
    INDEX 01 02:14:00
  TRACK 113 AUDIO
    TITLE "0:"
    INDEX 01 02:15:49
